<svg width="36" height="39" viewBox="0 0 36 39" fill="none" xmlns="http://www.w3.org/2000/svg">
<path d="M17.9252 0C18.2889 0.215241 18.6556 0.426496 19.0153 0.64672C19.8862 1.18084 20.1872 2.02187 19.8573 2.99245C19.7577 3.28641 19.6391 3.57539 19.5504 3.87235C19.4328 4.26994 19.1787 4.44034 18.7712 4.40447C18.6367 4.39251 18.4991 4.40248 18.3208 4.40248C18.3975 5.03325 18.6974 5.48167 19.2276 5.8434C19.3462 5.33818 19.7089 5.29533 20.1344 5.30131C21.3052 5.31825 22.4761 5.30529 23.647 5.30729C24.3126 5.30828 24.5179 5.6431 24.2309 6.24697C24.0715 6.58179 23.9121 6.91661 23.7466 7.26239C24.0825 7.49457 24.4123 7.69586 24.7132 7.93402C25.5961 8.63256 25.9329 9.54235 25.6988 10.6475C25.5832 11.1945 25.2364 11.339 24.767 11.047C24.4292 10.8368 24.1054 10.6016 23.7576 10.4083C23.6639 10.3565 23.4656 10.3674 23.3849 10.4332C22.1483 11.4456 21.5872 13.4735 22.1234 14.9911C22.1562 15.0828 22.3067 15.1835 22.4094 15.1924C23.2125 15.2592 23.2484 15.303 23.2673 16.1152C23.2733 16.3543 23.1268 16.6473 23.4327 16.8257C23.8881 17.0907 24.2987 17.4873 24.9026 17.2751C25.4068 17.0977 25.634 16.6423 25.4417 16.1441C25.357 15.9239 25.2434 15.7156 25.1437 15.5013C24.7302 14.6075 24.8268 13.9259 25.4995 13.2064C27.2174 11.3689 28.9433 9.53837 30.6662 7.70483C31.596 6.71532 32.5277 5.7288 33.4554 4.7373C33.6567 4.52305 33.851 4.30382 34.1868 4.41045C34.5276 4.51907 34.5505 4.82299 34.5804 5.10799C34.8375 7.53842 34.2586 9.74962 32.8346 11.7376C32.7768 11.8173 32.724 11.9 32.6323 12.0356C33.3568 11.8363 34.0244 11.6519 34.693 11.4706C35.2869 11.3101 35.566 11.5074 35.553 12.1153C35.5181 13.8133 34.7618 15.0868 33.276 15.9209C33.1475 15.9936 33.0159 16.0604 32.8874 16.1321C32.8814 16.1361 32.8834 16.155 32.8794 16.1919C33.3946 16.3065 33.9128 16.4171 34.43 16.5367C34.9681 16.6603 35.1026 16.9104 34.9232 17.4315C34.3861 18.996 32.9223 20.0692 31.2751 20.1071C31.1685 20.1091 31.0618 20.1071 30.8426 20.1071C31.3947 20.5366 31.862 20.8993 32.3284 21.264C32.8416 21.6646 32.8675 21.845 32.4759 22.3751C32.2835 22.6352 32.0822 22.8893 31.8839 23.1454C30.9881 24.3003 29.8053 24.6989 28.3813 24.4916C26.3624 24.1977 24.3415 23.9147 22.3207 23.6307C22.215 23.6157 22.1064 23.6287 21.9041 23.6287C22.0775 23.7483 22.1802 23.826 22.2898 23.8937C23.0939 24.391 23.8951 24.8942 24.7082 25.3775C25.0172 25.5609 25.1367 25.797 25.0959 26.1488C25.0321 26.6989 24.9883 27.2519 24.9703 27.8189C25.4048 27.236 25.9269 26.7995 26.6255 26.6072C27.7306 26.3023 28.9094 26.7208 29.5671 27.6495C30.2318 28.5872 30.2308 29.8617 29.5631 30.8004C28.9044 31.7261 27.7286 32.1307 26.6185 31.8387C25.8143 31.6275 25.0112 31.3903 24.1931 31.2628C22.5279 31.0037 21.4966 29.4492 21.9589 27.8578C21.9659 27.8349 21.9589 27.8079 21.9589 27.7382C21.4707 27.6485 20.9744 27.5518 20.4752 27.4741C20.4064 27.4632 20.2948 27.5329 20.25 27.5977C19.7856 28.2643 19.8833 29.0685 20.5071 29.6126C21.3242 30.3241 22.1443 31.0326 22.9813 31.7202C23.2693 31.9563 23.364 32.2144 23.3032 32.5672C23.1448 33.476 22.8209 34.316 22.2888 35.0713C22.0446 35.4181 21.7786 35.4649 21.4278 35.2258C21.0681 34.9807 20.7163 34.7256 20.3008 34.5113C20.4921 34.873 20.6814 35.2358 20.8738 35.5965C21.1847 36.1794 21.1528 36.3518 20.5938 36.6906C19.7109 37.2257 18.817 37.7409 17.9272 38.2651H17.6282C16.7702 37.7609 15.9093 37.2636 15.0563 36.7524C14.3886 36.3518 14.3557 36.2073 14.7175 35.5317C14.8978 35.1949 15.0772 34.8581 15.2067 34.4744C14.858 34.7186 14.5112 34.9647 14.1594 35.2049C13.7678 35.4729 13.5167 35.4271 13.2467 35.0404C12.7325 34.304 12.4206 33.4859 12.2571 32.605C12.1864 32.2254 12.288 31.9493 12.6009 31.6952C13.432 31.0196 14.2422 30.3191 15.0463 29.6126C15.6691 29.0655 15.7658 28.3251 15.3223 27.6316C15.2715 27.5528 15.131 27.4731 15.0443 27.4851C14.566 27.5519 14.0917 27.6455 13.6273 27.7282C13.6492 28.1348 13.714 28.5174 13.6811 28.8921C13.5815 30.0172 12.8192 30.906 11.724 31.1661C10.8172 31.3813 9.90245 31.5717 8.9827 31.7192C8.78738 31.75 8.4984 31.6036 8.34993 31.4471C7.75204 30.8133 7.19998 30.1367 6.61205 29.494C6.52038 29.3944 6.31709 29.3306 6.18058 29.3515C5.4093 29.4691 4.65296 29.0904 4.32811 28.3909C4.00126 27.6864 4.19358 26.8513 4.79446 26.365C5.4093 25.8678 6.27823 25.8578 6.90303 26.3421C7.50989 26.8125 7.74606 27.6465 7.39828 28.353C7.17009 28.8164 7.60256 28.921 7.74506 29.1821C7.88457 29.4372 8.0749 29.3057 8.25725 29.2399C8.81828 29.0376 9.38229 28.8413 9.94131 28.635C10.4445 28.4497 10.6349 28.1737 10.602 27.6445C10.5731 27.1732 10.5332 26.6999 10.4665 26.2325C10.4077 25.822 10.5382 25.5529 10.9029 25.3406C11.7091 24.8713 12.4963 24.3691 13.2905 23.8798C13.3902 23.818 13.4848 23.7483 13.5546 23.5958C13.0464 23.6656 12.5382 23.7363 12.0309 23.8061C10.2811 24.0472 8.53428 24.3143 6.77946 24.5225C5.56674 24.666 4.5583 24.2136 3.77904 23.2729C3.50102 22.9381 3.23795 22.5893 2.98186 22.2376C2.72277 21.8828 2.75665 21.6437 3.09944 21.3706C3.60366 20.9691 4.11685 20.5784 4.61809 20.1888C4.09094 20.0842 3.55782 20.0383 3.06656 19.8709C1.8638 19.4594 1.05664 18.6174 0.628155 17.4206C0.449784 16.9223 0.591285 16.6652 1.10348 16.5457C1.62364 16.4241 2.1468 16.3135 2.77359 16.175C2.58824 16.0823 2.47763 16.0315 2.37001 15.9737C0.827452 15.1486 0.0352454 13.8591 0.000368339 12.1133C-0.0115895 11.5064 0.267427 11.3121 0.863326 11.4735C1.53097 11.6539 2.19762 11.8383 2.76761 11.9947C2.33514 11.1228 1.81995 10.2389 1.44826 9.29821C0.914146 7.94598 0.80254 6.51901 0.975928 5.07311C1.00881 4.79609 1.05565 4.51807 1.37652 4.41842C1.6934 4.32076 1.88771 4.51408 2.08203 4.72135C4.70677 7.51749 7.3355 10.3106 9.96025 13.1078C10.7505 13.9498 10.8471 14.5826 10.3598 15.6169C10.2961 15.7515 10.2313 15.886 10.1665 16.0205C9.99513 16.3743 9.9732 16.726 10.2552 17.028C10.5452 17.3389 10.9239 17.4325 11.3145 17.2751C11.6224 17.1505 11.9074 16.9632 12.1854 16.7778C12.2552 16.731 12.2851 16.5895 12.292 16.4879C12.308 16.2647 12.292 16.0394 12.299 15.8162C12.312 15.3997 12.4794 15.1855 12.8889 15.2203C13.3403 15.2582 13.4529 15.0499 13.5257 14.6673C13.8276 13.0669 13.431 11.6858 12.2791 10.5299C12.1924 10.4432 12.0947 10.3684 11.9921 10.2798C11.5775 10.5458 11.1839 10.8059 10.7833 11.055C10.3309 11.336 9.99014 11.1955 9.8596 10.6833C9.59155 9.62905 9.99612 8.53889 10.9049 7.88918C11.1969 7.67992 11.4968 7.48361 11.8117 7.26937C11.6314 6.89569 11.455 6.54094 11.2886 6.1812C11.0514 5.66801 11.2706 5.31526 11.8366 5.31227C13.0693 5.30629 14.3019 5.31725 15.5356 5.30629C15.9272 5.3023 16.2271 5.39199 16.3079 5.85535C16.845 5.50559 17.1459 5.0492 17.2346 4.43237C17.1599 4.42241 17.1001 4.40846 17.0403 4.40646C16.1873 4.37358 16.1843 4.37557 15.8993 3.55247C15.7259 3.05024 15.4818 2.56496 15.5844 2.00194C15.689 1.42796 15.978 0.987518 16.4753 0.685583C16.8579 0.453401 17.2446 0.229192 17.6302 0.000996486C17.7299 0.000996486 17.8295 0.000996486 17.9291 0.000996486L17.9252 0ZM1.79305 17.4664C2.35307 18.6213 3.67441 19.2581 4.94892 19.0219C5.47407 18.9243 6.00121 18.8306 6.52436 18.722C6.81833 18.6612 7.04852 18.729 7.18304 19.002C7.32255 19.286 7.19998 19.5052 6.97179 19.6826C6.8542 19.7743 6.73662 19.866 6.61803 19.9576C5.77401 20.6133 4.92999 21.27 4.05906 21.9476C4.19358 22.121 4.31715 22.2735 4.43374 22.4319C5.07248 23.2978 5.92249 23.6217 6.98275 23.4623C8.28615 23.266 9.59255 23.0896 10.8979 22.9052C11.4849 22.8215 12.0708 22.7378 12.6637 22.6531C11.9821 21.1305 12.4584 19.5461 12.2482 18.0025C12.0868 18.0832 11.9572 18.156 11.8207 18.2138C10.5292 18.7658 9.10427 17.9487 8.99665 16.5975C8.95479 16.0733 9.19096 15.6329 9.40421 15.1835C9.72209 14.5138 9.69618 14.3524 9.19893 13.8223C6.88111 11.354 4.56228 8.88667 2.24246 6.42036C2.16972 6.34264 2.089 6.27388 1.96444 6.15629C1.96444 6.36456 1.95547 6.50805 1.96544 6.65055C2.12886 9.04311 3.11538 11.0241 4.94095 12.5826C5.1821 12.7889 5.33057 13.0191 5.15619 13.327C4.99575 13.61 4.74364 13.6319 4.4437 13.5452C3.46415 13.2642 2.48062 12.9992 1.49709 12.7301C1.37353 12.6962 1.24797 12.6703 1.09451 12.6344C1.11444 12.775 1.11743 12.8626 1.14135 12.9444C1.51602 14.2308 2.36204 15.022 3.66644 15.316C4.19956 15.4366 4.73966 15.5302 5.27377 15.6438C5.54681 15.7016 5.72618 15.875 5.72618 16.16C5.72618 16.442 5.56076 16.6184 5.28175 16.6802C5.19704 16.6991 5.11234 16.722 5.02764 16.741C3.9624 16.9801 2.89715 17.2193 1.79305 17.4674V17.4664ZM34.5107 12.6075C33.278 12.9454 32.165 13.2553 31.0489 13.5552C30.6244 13.6698 30.2617 13.4057 30.3424 13.0201C30.3783 12.8467 30.5237 12.6713 30.6642 12.5488C32.1121 11.2872 33.0528 9.7277 33.4295 7.84434C33.5361 7.31122 33.566 6.76216 33.6308 6.22007C33.5899 6.20612 33.5491 6.19316 33.5092 6.17921C33.4305 6.27388 33.3558 6.37253 33.271 6.46221C31.0897 8.78602 28.9104 11.1118 26.7221 13.4296C25.7755 14.4321 25.7546 14.3873 26.3475 15.609C26.6913 16.3185 26.6494 17.023 26.1462 17.6428C25.631 18.2776 24.9344 18.4928 24.1393 18.3304C23.8553 18.2726 23.5862 18.139 23.2613 18.0225C23.2613 18.4948 23.2753 18.9512 23.2584 19.4056C23.2175 20.4868 23.4457 21.5988 22.8697 22.6422C23.0471 22.6731 23.1796 22.7 23.3142 22.7189C25.0012 22.9561 26.6913 23.1783 28.3763 23.4334C29.8103 23.6506 30.7051 23.2381 31.4634 21.9366C31.3727 21.8619 31.2811 21.7812 31.1854 21.7065C30.3404 21.0488 29.4964 20.3911 28.6493 19.7374C28.4052 19.5491 28.2149 19.3388 28.3673 19.013C28.5138 18.6981 28.7749 18.6801 29.0928 18.7339C29.8511 18.8615 30.6164 19.0478 31.3757 19.0379C32.441 19.0249 33.2232 18.436 33.7793 17.4873C33.6587 17.4515 33.5899 17.4275 33.5202 17.4116C32.4529 17.1705 31.3867 16.9283 30.3185 16.6931C30.0275 16.6294 29.8312 16.4719 29.8282 16.17C29.8242 15.8451 30.0404 15.6877 30.3424 15.6279C30.8546 15.5263 31.3668 15.4256 31.878 15.318C32.9452 15.0938 33.7324 14.4979 34.2058 13.5134C34.3313 13.2533 34.3941 12.9633 34.5127 12.6075H34.5107ZM19.8514 35.9213C19.7756 35.7739 19.7149 35.6523 19.6501 35.5317C19.1917 34.6767 18.7333 33.8217 18.2719 32.9688C18.1304 32.7077 18.1334 32.4615 18.3666 32.2612C18.5878 32.0719 18.824 32.1048 19.0512 32.2672C19.1728 32.3539 19.2953 32.4396 19.4169 32.5253C20.1553 33.0465 20.8937 33.5676 21.7048 34.1396C21.8792 33.6454 22.0277 33.2029 22.1911 32.7655C22.2698 32.5542 22.1961 32.4287 22.0327 32.2921C21.2973 31.6783 20.5718 31.0505 19.8434 30.4277C19.3621 30.0172 19.0641 29.508 18.9496 28.8782C18.7831 27.9624 19.2017 27.23 19.674 26.5205C19.7487 26.4089 19.9879 26.3322 20.1334 26.3551C20.9933 26.4876 21.8503 26.6441 22.7043 26.8125C23.0959 26.8892 23.2344 27.1383 23.1408 27.5309C23.0919 27.7362 23.0212 27.9365 22.9664 28.1408C22.7043 29.1253 23.2275 29.9833 24.22 30.1915C24.8527 30.3241 25.4955 30.4187 26.1183 30.5842C26.5169 30.6908 26.7102 30.5423 26.8587 30.1995C26.3226 30.0062 25.7954 29.8208 25.2723 29.6255C24.3087 29.2658 23.8572 28.5862 23.9071 27.5588C23.924 27.1981 23.9479 26.8364 24.0057 26.4816C24.0426 26.2544 23.9609 26.1448 23.7795 26.0352C22.9594 25.5409 22.1393 25.0447 21.3341 24.5255C21.087 24.3661 20.9226 24.3621 20.6824 24.5455C19.8813 25.1563 19.0502 25.7293 18.245 26.3351C17.9142 26.5843 17.6362 26.5843 17.3053 26.3351C16.4803 25.7133 15.6342 25.1214 14.8062 24.5026C14.6148 24.3601 14.4803 24.3641 14.282 24.4906C13.5057 24.9849 12.7265 25.4762 11.9273 25.9326C11.6104 26.1129 11.4789 26.3072 11.5626 26.669C11.6184 26.9091 11.6194 27.1632 11.6383 27.4113C11.73 28.5802 11.2816 29.2708 10.1785 29.6664C9.67924 29.8458 9.181 30.0251 8.68176 30.2055C8.6688 30.2463 8.65684 30.2872 8.64389 30.3271C8.84518 30.4247 9.06042 30.626 9.24377 30.6011C9.96922 30.5005 10.6867 30.339 11.4022 30.1786C12.2851 29.9803 12.7943 29.1831 12.6199 28.2902C12.577 28.071 12.5063 27.8578 12.4475 27.6415C12.302 27.1104 12.4285 26.8822 12.9537 26.7846C13.7359 26.6381 14.5222 26.5135 15.3034 26.364C15.6342 26.3003 15.8604 26.4019 16.0099 26.6989C16.0767 26.8324 16.1534 26.9609 16.2252 27.0915C16.9416 28.4019 16.7314 29.5548 15.5974 30.5254C14.9068 31.1163 14.2133 31.7032 13.5257 32.2981C13.44 32.3729 13.3124 32.5074 13.3324 32.5781C13.4788 33.0923 13.6572 33.5975 13.8406 34.1496C14.7703 33.4909 15.6043 32.904 16.4344 32.3111C16.6776 32.1367 16.9267 32.043 17.1818 32.2583C17.4508 32.4845 17.402 32.7525 17.2505 33.0315C16.7872 33.8835 16.3288 34.7385 15.8704 35.5935C15.8146 35.6981 15.7698 35.8077 15.713 35.9283C16.3726 36.314 17.0034 36.6876 17.6412 37.0494C17.7109 37.0892 17.8405 37.0912 17.9092 37.0523C18.5569 36.6846 19.1967 36.305 19.8504 35.9213H19.8514ZM13.3732 16.2706C13.3593 16.3484 13.3423 16.3962 13.3423 16.444C13.3423 18.0244 13.3363 19.6049 13.3473 21.1853C13.3523 21.8689 13.6791 22.395 14.2252 22.7916C15.3313 23.5968 16.4414 24.396 17.5405 25.2111C17.7279 25.3506 17.8474 25.3337 18.0248 25.2021C19.0851 24.4179 20.1463 23.6357 21.2225 22.8743C21.9101 22.3881 22.231 21.7503 22.219 20.9073C22.2001 19.4893 22.214 18.0703 22.214 16.6513C22.214 16.5307 22.214 16.4101 22.214 16.2686H13.3732V16.2706ZM17.2426 15.1815C17.0901 12.5557 16.271 10.221 14.7334 8.14727C14.6617 8.05061 14.4873 7.98983 14.3587 7.98584C13.8615 7.96691 13.3632 7.97289 12.865 7.98186C12.7464 7.98385 12.6109 8.00477 12.5142 8.06656C12.1465 8.29874 11.7838 8.54088 11.4341 8.79997C11.1421 9.01621 10.9488 9.30519 10.878 9.74165C11.1819 9.54833 11.4251 9.39886 11.6622 9.24042C11.9114 9.07401 12.1435 9.08297 12.3847 9.26035C13.71 10.2359 14.4943 11.5353 14.6288 13.1765C14.6826 13.8332 14.5879 14.5019 14.561 15.1815H17.2426ZM21.0302 15.1785C21.0432 15.1436 21.0511 15.1316 21.0501 15.1217C21.0232 14.9632 20.9894 14.8048 20.9664 14.6464C20.6466 12.4451 21.363 10.6614 23.1198 9.29323C23.3939 9.07998 23.653 9.06603 23.937 9.26732C24.1562 9.42277 24.3884 9.55929 24.6634 9.73567C24.6026 9.27729 24.3704 9.00425 24.0775 8.7631C23.3959 8.20208 22.6635 7.80847 21.7347 7.97388C21.5783 8.00179 21.4099 7.99381 21.2504 7.97388C21.0073 7.94399 20.8678 8.0536 20.7313 8.24393C19.6401 9.76158 18.9067 11.4357 18.545 13.2672C18.4214 13.892 18.3696 14.5318 18.2829 15.1795H21.0292L21.0302 15.1785ZM17.8305 11.8004C18.2849 10.2917 18.9874 8.86076 19.9421 7.55436C20.1364 7.2883 19.959 7.16872 19.7139 7.12488C19.1469 7.02324 18.6536 6.77511 18.2301 6.39047C18.0687 6.24398 17.9252 6.07558 17.7637 5.90717C17.2505 6.57681 16.6108 6.99135 15.7997 7.13684C15.5157 7.18766 15.4658 7.35008 15.6342 7.59323C15.8824 7.95096 16.1544 8.29874 16.3477 8.68538C16.8619 9.71375 17.3392 10.7601 17.8315 11.8004H17.8305ZM27.8193 30.7715C28.5577 30.632 29.0499 29.9165 29.0051 29.1143C28.9603 28.3012 28.3036 27.6236 27.5084 27.5678C26.6843 27.51 25.9738 27.9833 25.8193 28.7108C26.5049 28.9559 27.1955 29.197 27.8821 29.4512C28.3713 29.6325 28.464 30.0082 28.1292 30.4118C28.0375 30.5224 27.9418 30.63 27.8203 30.7715H27.8193ZM17.7597 3.35716C18.3344 3.35716 18.6895 3.16085 18.825 2.76824C19.0771 2.03582 18.5868 1.25757 17.8086 1.1619C17.7538 1.15493 17.688 1.18283 17.6372 1.21173C17.401 1.34825 17.1569 1.4748 16.9386 1.63623C16.6546 1.84549 16.552 2.13547 16.6377 2.49022C16.847 3.35617 16.844 3.35716 17.7229 3.35716H17.7597ZM6.49547 27.6894C6.49547 27.3356 6.20648 27.0506 5.85672 27.0566C5.52688 27.0626 5.24089 27.3446 5.23092 27.6724C5.22096 28.0132 5.51592 28.3181 5.85971 28.3231C6.20947 28.3281 6.49646 28.0421 6.49547 27.6884V27.6894ZM12.586 6.37353C12.6518 6.79604 12.8491 7.00032 13.2915 6.93853C13.5476 6.90266 13.8137 6.93156 14.0747 6.93156C14.6388 6.93156 14.6437 6.92857 14.8131 6.37353H12.587H12.586ZM20.7193 6.37153C20.8249 6.76216 20.9983 7.00032 21.4438 6.93853C21.7128 6.90166 21.9948 6.90166 22.2639 6.93853C22.7073 6.99932 22.8976 6.78806 22.9664 6.37153H20.7193Z" fill="white"/>
<path d="M21.0501 17.4216H14.5022V21.3467L17.6262 23.7831L19.9998 22.0821" stroke="white" stroke-linecap="round" stroke-linejoin="round"/>
<path d="M14.569 19.7833H20.5957" stroke="white" stroke-linecap="round" stroke-linejoin="round"/>
</svg>
